HIERARCHY
ROOT hips_JNT
{
  OFFSET 0.000000 0.000000 0.000000
  CHANNELS 6 Xposition Yposition Zposition Zrotation Xrotation Yrotation
  JOINT spine_JNT
  {
    OFFSET 0.000000 4.130373 -0.008512
    CHANNELS 6 Xposition Yposition Zposition Zrotation Xrotation Yrotation
    JOINT spine1_JNT
    {
      OFFSET 0.000000 10.693992 -0.005568
      CHANNELS 6 Xposition Yposition Zposition Zrotation Xrotation Yrotation
      JOINT spine2_JNT
      {
        OFFSET 0.000000 10.153212 -0.012624
        CHANNELS 6 Xposition Yposition Zposition Zrotation Xrotation Yrotation
        JOINT neck_JNT
        {
          OFFSET 0.000000 17.065638 0.263754
          CHANNELS 6 Xposition Yposition Zposition Zrotation Xrotation Yrotation
          JOINT head_JNT
          {
            OFFSET 0.000000 8.137577 0.007754
            CHANNELS 6 Xposition Yposition Zposition Zrotation Xrotation Yrotation
            JOINT r_eye_LOC
            {
              OFFSET -5.100100 12.306628 9.664178
              CHANNELS 6 Xposition Yposition Zposition Zrotation Xrotation Yrotation
              End Site
              {
                OFFSET 0.000000 0.000000 0.000000
              }
            }
            JOINT l_eye_LOC
            {
              OFFSET 5.100100 12.306628 9.664178
              CHANNELS 6 Xposition Yposition Zposition Zrotation Xrotation Yrotation
              End Site
              {
                OFFSET 0.000000 0.000000 0.000000
              }
            }
          }
        }
        JOINT r_shoulder_JNT
        {
          OFFSET -2.886765 12.539096 -0.534970
          CHANNELS 6 Xposition Yposition Zposition Zrotation Xrotation Yrotation
          JOINT r_arm_JNT
          {
            OFFSET -10.265322 -0.000050 -0.000020
            CHANNELS 6 Xposition Yposition Zposition Zrotation Xrotation Yrotation
            JOINT r_forearm_JNT
            {
              OFFSET -25.572863 0.000000 -0.000009
              CHANNELS 6 Xposition Yposition Zposition Zrotation Xrotation Yrotation
              JOINT r_hand_JNT
              {
                OFFSET -19.807005 -0.346000 -0.000001
                CHANNELS 6 Xposition Yposition Zposition Zrotation Xrotation Yrotation
                JOINT r_handThumb1_JNT
                {
                  OFFSET -1.817488 -1.260972 3.617090
                  CHANNELS 6 Xposition Yposition Zposition Zrotation Xrotation Yrotation
                  JOINT r_handThumb2_JNT
                  {
                    OFFSET -2.639243 -0.023618 -0.053143
                    CHANNELS 6 Xposition Yposition Zposition Zrotation Xrotation Yrotation
                    JOINT r_handThumb3_JNT
                    {
                      OFFSET -2.698978 -0.823875 0.000033
                      CHANNELS 6 Xposition Yposition Zposition Zrotation Xrotation Yrotation
                      End Site
                      {
                        OFFSET -3.875300 -0.611784 -0.000028
                      }
                    }
                  }
                }
                JOINT r_handIndex1_JNT
                {
                  OFFSET -8.251890 -0.108337 3.749100
                  CHANNELS 6 Xposition Yposition Zposition Zrotation Xrotation Yrotation
                  JOINT r_handIndex2_JNT
                  {
                    OFFSET -3.896140 0.288500 -0.000463
                    CHANNELS 6 Xposition Yposition Zposition Zrotation Xrotation Yrotation
                    JOINT r_handIndex3_JNT
                    {
                      OFFSET -2.318387 0.159236 -0.000487
                      CHANNELS 6 Xposition Yposition Zposition Zrotation Xrotation Yrotation
                      End Site
                      {
                        OFFSET -2.565999 -0.000006 -0.000002
                      }
                    }
                  }
                }
                JOINT r_handMiddle1_JNT
                {
                  OFFSET -9.047189 0.040404 1.280809
                  CHANNELS 6 Xposition Yposition Zposition Zrotation Xrotation Yrotation
                  JOINT r_handMiddle2_JNT
                  {
                    OFFSET -3.918013 0.058125 -0.000245
                    CHANNELS 6 Xposition Yposition Zposition Zrotation Xrotation Yrotation
                    JOINT r_handMiddle3_JNT
                    {
                      OFFSET -2.517173 0.020933 -0.000344
                      CHANNELS 6 Xposition Yposition Zposition Zrotation Xrotation Yrotation
                      End Site
                      {
                        OFFSET -2.488746 -0.000003 -0.000001
                      }
                    }
                  }
                }
                JOINT r_handRing1_JNT
                {
                  OFFSET -8.770376 -0.316066 -1.406740
                  CHANNELS 6 Xposition Yposition Zposition Zrotation Xrotation Yrotation
                  JOINT r_handRing2_JNT
                  {
                    OFFSET -3.670816 0.003664 0.000012
                    CHANNELS 6 Xposition Yposition Zposition Zrotation Xrotation Yrotation
                    JOINT r_handRing3_JNT
                    {
                      OFFSET -2.391655 0.005686 -0.000005
                      CHANNELS 6 Xposition Yposition Zposition Zrotation Xrotation Yrotation
                      End Site
                      {
                        OFFSET -2.137327 -0.000002 0.000000
                      }
                    }
                  }
                }
                JOINT r_handPinky1_JNT
                {
                  OFFSET -7.380626 -1.009364 -3.361094
                  CHANNELS 6 Xposition Yposition Zposition Zrotation Xrotation Yrotation
                  JOINT r_handPinky2_JNT
                  {
                    OFFSET -2.923373 0.065774 -0.000015
                    CHANNELS 6 Xposition Yposition Zposition Zrotation Xrotation Yrotation
                    JOINT r_handPinky3_JNT
                    {
                      OFFSET -1.903112 -0.013694 0.000004
                      CHANNELS 6 Xposition Yposition Zposition Zrotation Xrotation Yrotation
                      End Site
                      {
                        OFFSET -1.808159 -0.000003 0.000001
                      }
                    }
                  }
                }
              }
            }
          }
        }
        JOINT l_shoulder_JNT
        {
          OFFSET 2.886657 12.539132 -0.534974
          CHANNELS 6 Xposition Yposition Zposition Zrotation Xrotation Yrotation
          JOINT l_arm_JNT
          {
            OFFSET 10.265323 0.000035 0.000019
            CHANNELS 6 Xposition Yposition Zposition Zrotation Xrotation Yrotation
            JOINT l_forearm_JNT
            {
              OFFSET 25.572872 0.000003 0.000003
              CHANNELS 6 Xposition Yposition Zposition Zrotation Xrotation Yrotation
              JOINT l_hand_JNT
              {
                OFFSET 19.806792 -0.345714 0.000008
                CHANNELS 6 Xposition Yposition Zposition Zrotation Xrotation Yrotation
                JOINT l_handThumb1_JNT
                {
                  OFFSET 1.812944 -1.252033 3.615281
                  CHANNELS 6 Xposition Yposition Zposition Zrotation Xrotation Yrotation
                  JOINT l_handThumb2_JNT
                  {
                    OFFSET 2.639235 -0.023623 -0.053106
                    CHANNELS 6 Xposition Yposition Zposition Zrotation Xrotation Yrotation
                    JOINT l_handThumb3_JNT
                    {
                      OFFSET 2.817296 0.161941 -0.000019
                      CHANNELS 6 Xposition Yposition Zposition Zrotation Xrotation Yrotation
                      End Site
                      {
                        OFFSET 3.875300 -0.611784 -0.000028
                      }
                    }
                  }
                }
                JOINT l_handIndex1_JNT
                {
                  OFFSET 8.246994 -0.097605 3.748598
                  CHANNELS 6 Xposition Yposition Zposition Zrotation Xrotation Yrotation
                  JOINT l_handIndex2_JNT
                  {
                    OFFSET 3.896263 0.286875 -0.000004
                    CHANNELS 6 Xposition Yposition Zposition Zrotation Xrotation Yrotation
                    JOINT l_handIndex3_JNT
                    {
                      OFFSET 2.318424 0.158303 -0.000001
                      CHANNELS 6 Xposition Yposition Zposition Zrotation Xrotation Yrotation
                      End Site
                      {
                        OFFSET 2.565999 -0.000006 -0.000002
                      }
                    }
                  }
                }
                JOINT l_handMiddle1_JNT
                {
                  OFFSET 9.042166 0.054560 1.280483
                  CHANNELS 6 Xposition Yposition Zposition Zrotation Xrotation Yrotation
                  JOINT l_handMiddle2_JNT
                  {
                    OFFSET 3.918027 0.055923 -0.000003
                    CHANNELS 6 Xposition Yposition Zposition Zrotation Xrotation Yrotation
                    JOINT l_handMiddle3_JNT
                    {
                      OFFSET 2.517179 0.019623 -0.000001
                      CHANNELS 6 Xposition Yposition Zposition Zrotation Xrotation Yrotation
                      End Site
                      {
                        OFFSET 2.488746 -0.000003 -0.000001
                      }
                    }
                  }
                }
                JOINT l_handRing1_JNT
                {
                  OFFSET 8.765368 -0.298586 -1.407511
                  CHANNELS 6 Xposition Yposition Zposition Zrotation Xrotation Yrotation
                  JOINT l_handRing2_JNT
                  {
                    OFFSET 3.670795 0.003694 0.000002
                    CHANNELS 6 Xposition Yposition Zposition Zrotation Xrotation Yrotation
                    JOINT l_handRing3_JNT
                    {
                      OFFSET 2.391658 0.005747 0.000001
                      CHANNELS 6 Xposition Yposition Zposition Zrotation Xrotation Yrotation
                      End Site
                      {
                        OFFSET 2.137327 -0.000002 0.000000
                      }
                    }
                  }
                }
                JOINT l_handPinky1_JNT
                {
                  OFFSET 7.375719 -0.989721 -3.362722
                  CHANNELS 6 Xposition Yposition Zposition Zrotation Xrotation Yrotation
                  JOINT l_handPinky2_JNT
                  {
                    OFFSET 2.923453 0.065764 0.000007
                    CHANNELS 6 Xposition Yposition Zposition Zrotation Xrotation Yrotation
                    JOINT l_handPinky3_JNT
                    {
                      OFFSET 1.903052 -0.013621 0.000002
                      CHANNELS 6 Xposition Yposition Zposition Zrotation Xrotation Yrotation
                      End Site
                      {
                        OFFSET 1.808159 -0.000003 0.000001
                      }
                    }
                  }
                }
              }
            }
          }
        }
      }
    }
  }
}
MOTION
Frames: 4
Frame Time: 0.033333
0.000008 0.000008 0.000008 0.000000 -3.998069 0.000000 0.000000 4.130373 -0.008512 0.000000 2.399230 0.000000 0.000000 10.693992 -0.005568 0.000000 -2.080927 0.000000 0.000000 10.153212 -0.012624 0.000000 -6.511725 0.000000 0.000000 17.065638 0.263754 0.000000 24.405440 0.000000 0.000000 8.137577 0.007754 0.000000 -9.789974 0.000000 -5.100100 12.306628 9.664178 0.000000 0.352941 0.352941 5.100100 12.306628 9.664178 0.000000 0.352941 0.352941 -2.886765 12.539096 -0.534970 0.000000 5.604690 0.000000 -10.265322 -0.000050 -0.000020 81.002481 13.267047 -6.538300 -25.572863 0.000000 -0.000009 0.209874 -1.427195 35.426618 -19.807005 -0.346000 -0.000001 -0.034977 -0.151228 18.996018 -1.817488 -1.260972 3.617090 -54.941660 34.166684 75.512047 -2.639243 -0.023618 -0.053143 -6.352941 0.000000 0.000000 -2.698978 -0.823875 0.000033 12.000000 0.000000 0.000000 -8.251890 -0.108337 3.749100 2.147486 4.134892 0.088206 -3.896140 0.288500 -0.000463 -7.764706 0.000000 0.000000 -2.318387 0.159236 -0.000487 -7.764706 0.000000 0.000000 -9.047189 0.040404 1.280809 0.180192 4.486544 -0.617729 -3.918013 0.058125 -0.000245 0.705882 0.000000 0.000000 -2.517173 0.020933 -0.000344 -6.352941 0.000000 0.000000 -8.770376 -0.316066 -1.406740 1.722158 7.046802 -8.599167 -3.670816 0.003664 0.000012 0.705882 0.000000 0.000000 -2.391655 0.005686 -0.000005 -6.352941 0.000000 0.000000 -7.380626 -1.009364 -3.361094 0.446640 -1.539075 -22.970638 -2.923373 0.065774 -0.000015 0.705882 0.000000 0.000000 -1.903112 -0.013694 0.000004 0.705882 0.000000 0.000000 2.886657 12.539132 -0.534974 0.000000 5.555672 0.000000 10.265323 0.000035 0.000019 -81.014133 13.228177 6.589949 25.572872 0.000003 0.000003 -0.241203 -1.398832 -35.426856 19.806792 -0.345714 0.000008 0.034977 -0.151228 -18.996018 1.812944 -1.252033 3.615281 69.580923 36.572358 -84.167986 2.639235 -0.023623 -0.053106 -14.823529 0.000000 0.000000 2.817296 0.161941 -0.000019 12.000000 0.000000 0.000000 8.246994 -0.097605 3.748598 -2.134766 4.134853 -0.264618 3.896263 0.286875 -0.000004 7.764706 0.000000 0.000000 2.318424 0.158303 -0.000001 7.764706 0.000000 0.000000 9.042166 0.054560 1.280483 -0.023246 -4.486756 0.264741 3.918027 0.055923 -0.000003 -3.529412 0.000000 0.000000 2.517179 0.019623 -0.000001 6.352941 0.000000 0.000000 8.765368 -0.298586 -1.407511 -1.648511 6.701918 8.415691 3.670795 0.003694 0.000002 0.705882 0.000000 0.000000 2.391658 0.005747 0.000001 6.352941 0.000000 0.000000 7.375719 -0.989721 -3.362722 -0.451370 -1.541071 22.794633 2.923453 0.065764 0.000007 0.705882 0.000000 0.000000 1.903052 -0.013621 0.000002 0.705882 0.000000 0.000000
0.000008 0.000008 0.000008 0.000000 -3.998069 0.000000 0.000000 4.130373 -0.008512 0.000000 2.399230 0.000000 0.000000 10.693992 -0.005568 -0.012598 -2.080936 0.076722 0.000000 10.153212 -0.012624 0.000000 -6.511725 0.000000 0.000000 17.065638 0.263754 0.000000 24.405440 0.000000 0.000000 8.137577 0.007754 0.036169 -9.793494 -0.028491 -5.100100 12.306628 9.664178 0.000000 0.352941 0.352941 5.100100 12.306628 9.664178 0.000000 0.352941 0.352941 -2.886765 12.539096 -0.534970 0.000000 5.604690 0.000000 -10.265322 -0.000050 -0.000020 80.883446 13.275662 -6.023862 -25.572863 0.000000 -0.000009 0.097922 -1.441184 35.509697 -19.807005 -0.346000 -0.000001 0.117260 0.040893 18.996016 -1.817488 -1.260972 3.617090 -55.146481 34.361004 75.536281 -2.639243 -0.023618 -0.053143 -6.352941 0.000000 0.000000 -2.698978 -0.823875 0.000033 12.000000 0.000000 0.000000 -8.251890 -0.108337 3.749100 2.160206 4.134892 -0.088206 -3.896140 0.288500 -0.000463 -7.764706 0.000000 0.000000 -2.318387 0.159236 -0.000487 -7.764706 0.000000 0.000000 -9.047189 0.040404 1.280809 0.180192 4.486544 -0.617729 -3.918013 0.058125 -0.000245 0.705882 0.000000 0.000000 -2.517173 0.020933 -0.000344 -6.352941 0.000000 0.000000 -8.770376 -0.316066 -1.406740 1.674449 6.875976 -8.418757 -3.670816 0.003664 0.000012 0.705882 0.000000 0.000000 -2.391655 0.005686 -0.000005 -6.352941 0.000000 0.000000 -7.380626 -1.009364 -3.361094 0.456107 -1.543052 -22.618627 -2.923373 0.065774 -0.000015 0.705882 0.000000 0.000000 -1.903112 -0.013694 0.000004 0.705882 0.000000 0.000000 2.886657 12.539132 -0.534974 0.000000 5.555672 0.000000 10.265323 0.000035 0.000019 -80.997620 13.077599 6.716575 25.572872 0.000003 0.000003 -0.164003 -1.384007 -35.796801 19.806792 -0.345714 0.000008 -0.432916 -0.003409 -18.631076 1.812944 -1.252033 3.615281 69.622723 36.737875 -84.132218 2.639235 -0.023623 -0.053106 -16.235294 0.000000 0.000000 2.817296 0.161941 -0.000019 12.000000 0.000000 0.000000 8.246994 -0.097605 3.748598 -2.147486 4.134892 -0.088206 3.896263 0.286875 -0.000004 7.764706 0.000000 0.000000 2.318424 0.158303 -0.000001 7.764706 0.000000 0.000000 9.042166 0.054560 1.280483 -0.111158 -4.486756 0.264741 3.918027 0.055923 -0.000003 -3.529412 0.000000 0.000000 2.517179 0.019623 -0.000001 6.352941 0.000000 0.000000 8.765368 -0.298586 -1.407511 -1.627834 6.704924 8.238552 3.670795 0.003694 0.000002 0.705882 0.000000 0.000000 2.391658 0.005747 0.000001 6.352941 0.000000 0.000000 7.375719 -0.989721 -3.362722 -0.460849 -1.545018 22.442621 2.923453 0.065764 0.000007 0.705882 0.000000 0.000000 1.903052 -0.013621 0.000002 0.705882 0.000000 0.000000
0.000008 0.000008 0.000008 0.000000 -3.998069 0.000000 0.000000 4.130373 -0.008512 0.000000 2.399230 0.000000 0.000000 10.693992 -0.005568 -0.044783 -2.084519 0.230036 0.000000 10.153212 -0.012624 0.000000 -6.511725 0.000000 0.000000 17.065638 0.263754 0.000000 24.405440 0.000000 0.000000 8.137577 0.007754 0.127095 -9.793574 -0.073351 -5.100100 12.306628 9.664178 0.000000 0.352941 0.352941 5.100100 12.306628 9.664178 0.000000 0.352941 0.352941 -2.886765 12.539096 -0.534970 0.000000 5.604690 0.000000 -10.265322 -0.000050 -0.000020 80.642090 13.288725 -5.030037 -25.572863 0.000000 -0.000009 -0.121496 -1.460847 35.668623 -19.807005 -0.346000 -0.000001 0.436694 0.420545 18.994712 -1.817488 -1.260972 3.617090 -55.549917 34.719355 75.627994 -2.639243 -0.023618 -0.053143 -6.352941 0.000000 0.000000 -2.698978 -0.823875 0.000033 12.000000 0.000000 0.000000 -8.251890 -0.108337 3.749100 2.172112 3.958902 -0.264561 -3.896140 0.288500 -0.000463 -7.764706 0.000000 0.000000 -2.318387 0.159236 -0.000487 -7.764706 0.000000 0.000000 -9.047189 0.040404 1.280809 0.180192 4.486544 -0.617729 -3.918013 0.058125 -0.000245 0.705882 0.000000 0.000000 -2.517173 0.020933 -0.000344 -6.352941 0.000000 0.000000 -8.770376 -0.316066 -1.406740 1.653230 6.879060 -8.241556 -3.670816 0.003664 0.000012 0.705882 0.000000 0.000000 -2.391655 0.005686 -0.000005 -6.352941 0.000000 0.000000 -7.380626 -1.009364 -3.361094 0.398897 -1.709802 -22.268510 -2.923373 0.065774 -0.000015 0.705882 0.000000 0.000000 -1.903112 -0.013694 0.000004 0.705882 0.000000 0.000000 2.886657 12.539132 -0.534974 0.000000 5.555672 0.000000 10.265323 0.000035 0.000019 -81.004126 12.782322 6.981241 25.572872 0.000003 0.000003 -0.002386 -1.347032 -36.508390 19.806792 -0.345714 0.000008 -1.337631 0.296062 -17.934502 1.812944 -1.252033 3.615281 69.710054 37.025106 -84.098239 2.639235 -0.023623 -0.053106 -16.235294 0.000000 0.000000 2.817296 0.161941 -0.000019 12.000000 0.000000 0.000000 8.246994 -0.097605 3.748598 -2.248118 4.134892 0.088206 3.896263 0.286875 -0.000004 7.764706 0.000000 0.000000 2.318424 0.158303 -0.000001 7.764706 0.000000 0.000000 9.042166 0.054560 1.280483 -0.111158 -4.486756 0.264741 3.918027 0.055923 -0.000003 -3.529412 0.000000 0.000000 2.517179 0.019623 -0.000001 6.352941 0.000000 0.000000 8.765368 -0.298586 -1.407511 -1.519235 6.707866 8.061412 3.670795 0.003694 0.000002 0.705882 0.000000 0.000000 2.391658 0.005747 0.000001 6.352941 0.000000 0.000000 7.375719 -0.989721 -3.362722 -0.470352 -1.548908 22.090608 2.923453 0.065764 0.000007 0.705882 0.000000 0.000000 1.903052 -0.013621 0.000002 0.705882 0.000000 0.000000
0.000008 0.000008 0.000008 0.000000 -3.998069 0.000000 0.000000 4.130373 -0.008512 0.000000 2.399230 0.000000 0.000000 10.693992 -0.005568 -0.089616 -2.088296 0.456573 0.000000 10.153212 -0.012624 0.000000 -6.511725 0.000000 0.000000 17.065638 0.263754 0.000000 24.405440 0.000000 0.000000 8.137577 0.007754 0.262168 -9.797337 -0.135480 -5.100100 12.306628 9.664178 0.000000 0.352941 0.352941 5.100100 12.306628 9.664178 0.000000 0.352941 0.352941 -2.886765 12.539096 -0.534970 0.000000 5.604690 0.000000 -10.265322 -0.000050 -0.000020 80.272174 13.300431 -3.541597 -25.572863 0.000000 -0.000009 -0.445037 -1.497075 35.907336 -19.807005 -0.346000 -0.000001 0.910298 0.981852 18.975372 -1.817488 -1.260972 3.617090 -56.104524 35.221198 75.765993 -2.639243 -0.023618 -0.053143 -4.941176 0.000000 0.000000 -2.698978 -0.823875 0.000033 12.000000 0.000000 0.000000 -8.251890 -0.108337 3.749100 2.185646 4.134775 -0.441031 -3.896140 0.288500 -0.000463 -7.764706 0.000000 0.000000 -2.318387 0.159236 -0.000487 -7.764706 0.000000 0.000000 -9.047189 0.040404 1.280809 0.180192 4.486544 -0.617729 -3.918013 0.058125 -0.000245 0.705882 0.000000 0.000000 -2.517173 0.020933 -0.000344 -6.352941 0.000000 0.000000 -8.770376 -0.316066 -1.406740 1.477834 6.713560 -7.707124 -3.670816 0.003664 0.000012 0.705882 0.000000 0.000000 -2.391655 0.005686 -0.000005 -6.352941 0.000000 0.000000 -7.380626 -1.009364 -3.361094 0.419957 -1.718271 -21.564434 -2.923373 0.065774 -0.000015 0.705882 0.000000 0.000000 -1.903112 -0.013694 0.000004 0.705882 0.000000 0.000000 2.886657 12.539132 -0.534974 0.000000 5.555672 0.000000 10.265323 0.000035 0.000019 -81.022071 12.346695 7.367119 25.572872 0.000003 0.000003 0.221912 -1.335125 -37.568068 19.806792 -0.345714 0.000008 -2.746758 0.671960 -16.843139 1.812944 -1.252033 3.615281 69.830172 37.431868 -84.065046 2.639235 -0.023623 -0.053106 -16.235294 0.000000 0.000000 2.817296 0.161941 -0.000019 12.000000 0.000000 0.000000 8.246994 -0.097605 3.748598 -2.260024 3.958902 0.264561 3.896263 0.286875 -0.000004 7.764706 0.000000 0.000000 2.318424 0.158303 -0.000001 7.764706 0.000000 0.000000 9.042166 0.054560 1.280483 -0.111158 -4.486756 0.264741 3.918027 0.055923 -0.000003 -3.529412 0.000000 0.000000 2.517179 0.019623 -0.000001 6.352941 0.000000 0.000000 8.765368 -0.298586 -1.407511 -1.433912 6.541876 7.527298 3.670795 0.003694 0.000002 0.705882 0.000000 0.000000 2.391658 0.005747 0.000001 6.352941 0.000000 0.000000 7.375719 -0.989721 -3.362722 -0.425238 -1.720348 21.388414 2.923453 0.065764 0.000007 0.705882 0.000000 0.000000 1.903052 -0.013621 0.000002 0.705882 0.000000 0.000000
